name rise30.6535peak61.5555fall82.9339.mot
datacolumns 19
datarows 21
range 19.51158500000000 19.54492200000000
endheader
time	ground_force1_vx	ground_force1_vy	ground_force1_vz	ground_force1_px	ground_force1_py	ground_force1_pz	ground_force2_vx	ground_force2_vy	ground_force2_vz	ground_force2_px	ground_force2_py	ground_force2_pz	ground_torque1_x	ground_torque1_y	ground_torque1_z	ground_torque2_x	ground_torque2_y	ground_torque2_z	
19.51158500000000	60.89106200000000	769.46607200000005	56.54673600000000	0.36574600000000	0.00000000000000	0.12524200000000	0.00000000000000	0.00000000000000	0.00000000000000	0.00000000000000	0.00000000000000	0.00000000000000	0.00000000000000	25.40871500000000	0.00000000000000	0.00000000000000	0.00000000000000	0.00000000000000	
19.51325100000000	60.14342000000000	771.50727400000005	56.74319100000000	0.36465600000000	0.00000000000000	0.12527700000000	0.00000000000000	0.00000000000000	0.00000000000000	0.00000000000000	0.00000000000000	0.00000000000000	0.00000000000000	25.58175700000000	0.00000000000000	0.00000000000000	0.00000000000000	0.00000000000000	
19.51492800000000	59.40125700000000	773.42089699999997	56.94135100000000	0.36358600000000	0.00000000000000	0.12531400000000	0.00000000000000	0.00000000000000	0.00000000000000	0.00000000000000	0.00000000000000	0.00000000000000	0.00000000000000	25.75587300000000	0.00000000000000	0.00000000000000	0.00000000000000	0.00000000000000	
19.51659200000000	58.66518300000000	775.20659999999998	57.14093100000000	0.36253600000000	0.00000000000000	0.12535300000000	0.00000000000000	0.00000000000000	0.00000000000000	0.00000000000000	0.00000000000000	0.00000000000000	0.00000000000000	25.93081000000000	0.00000000000000	0.00000000000000	0.00000000000000	0.00000000000000	
19.51825200000000	57.93572800000000	776.86418700000002	57.34158100000000	0.36150400000000	0.00000000000000	0.12539400000000	0.00000000000000	0.00000000000000	0.00000000000000	0.00000000000000	0.00000000000000	0.00000000000000	0.00000000000000	26.10627300000000	0.00000000000000	0.00000000000000	0.00000000000000	0.00000000000000	
19.51992300000000	57.21333900000000	778.39360999999997	57.54288100000000	0.36049000000000	0.00000000000000	0.12543600000000	0.00000000000000	0.00000000000000	0.00000000000000	0.00000000000000	0.00000000000000	0.00000000000000	0.00000000000000	26.28193300000000	0.00000000000000	0.00000000000000	0.00000000000000	0.00000000000000	
19.52158500000000	56.49838800000000	779.79497700000002	57.74435300000000	0.35949400000000	0.00000000000000	0.12547900000000	0.00000000000000	0.00000000000000	0.00000000000000	0.00000000000000	0.00000000000000	0.00000000000000	0.00000000000000	26.45743000000000	0.00000000000000	0.00000000000000	0.00000000000000	0.00000000000000	
19.52325700000000	55.79117400000000	781.06856400000004	57.94546100000000	0.35851500000000	0.00000000000000	0.12552400000000	0.00000000000000	0.00000000000000	0.00000000000000	0.00000000000000	0.00000000000000	0.00000000000000	0.00000000000000	26.63237200000000	0.00000000000000	0.00000000000000	0.00000000000000	0.00000000000000	
19.52492500000000	55.09192600000000	782.21481800000004	58.14561900000000	0.35755200000000	0.00000000000000	0.12557100000000	0.00000000000000	0.00000000000000	0.00000000000000	0.00000000000000	0.00000000000000	0.00000000000000	0.00000000000000	26.80634200000000	0.00000000000000	0.00000000000000	0.00000000000000	0.00000000000000	
19.52658600000000	54.40080600000000	783.23436300000003	58.34419800000000	0.35660300000000	0.00000000000000	0.12561800000000	0.00000000000000	0.00000000000000	0.00000000000000	0.00000000000000	0.00000000000000	0.00000000000000	0.00000000000000	26.97890100000000	0.00000000000000	0.00000000000000	0.00000000000000	0.00000000000000	
19.52825500000000	53.71791700000000	784.12800500000003	58.54052700000000	0.35566900000000	0.00000000000000	0.12566700000000	0.00000000000000	0.00000000000000	0.00000000000000	0.00000000000000	0.00000000000000	0.00000000000000	0.00000000000000	27.14958600000000	0.00000000000000	0.00000000000000	0.00000000000000	0.00000000000000	
19.52991700000000	53.04330000000000	784.89673800000003	58.73390400000000	0.35474700000000	0.00000000000000	0.12571700000000	0.00000000000000	0.00000000000000	0.00000000000000	0.00000000000000	0.00000000000000	0.00000000000000	0.00000000000000	27.31792300000000	0.00000000000000	0.00000000000000	0.00000000000000	0.00000000000000	
19.53159100000000	52.37694500000000	785.54174200000000	58.92359800000000	0.35383700000000	0.00000000000000	0.12576800000000	0.00000000000000	0.00000000000000	0.00000000000000	0.00000000000000	0.00000000000000	0.00000000000000	0.00000000000000	27.48342100000000	0.00000000000000	0.00000000000000	0.00000000000000	0.00000000000000	
19.53325900000000	51.71879300000000	786.06439100000000	59.10885900000000	0.35293800000000	0.00000000000000	0.12582000000000	0.00000000000000	0.00000000000000	0.00000000000000	0.00000000000000	0.00000000000000	0.00000000000000	0.00000000000000	27.64558200000000	0.00000000000000	0.00000000000000	0.00000000000000	0.00000000000000	
19.53492500000000	51.06874000000000	786.46624799999995	59.28892100000000	0.35204900000000	0.00000000000000	0.12587300000000	0.00000000000000	0.00000000000000	0.00000000000000	0.00000000000000	0.00000000000000	0.00000000000000	0.00000000000000	27.80390000000000	0.00000000000000	0.00000000000000	0.00000000000000	0.00000000000000	
19.53659100000000	50.42664100000000	786.74906999999996	59.46300800000000	0.35116700000000	0.00000000000000	0.12592700000000	0.00000000000000	0.00000000000000	0.00000000000000	0.00000000000000	0.00000000000000	0.00000000000000	0.00000000000000	27.95786800000000	0.00000000000000	0.00000000000000	0.00000000000000	0.00000000000000	
19.53825200000000	49.79231600000000	786.91480000000001	59.63034400000000	0.35029200000000	0.00000000000000	0.12598100000000	0.00000000000000	0.00000000000000	0.00000000000000	0.00000000000000	0.00000000000000	0.00000000000000	0.00000000000000	28.10697800000000	0.00000000000000	0.00000000000000	0.00000000000000	0.00000000000000	
19.53992000000000	49.16555600000000	786.96557199999995	59.79015300000000	0.34942300000000	0.00000000000000	0.12603600000000	0.00000000000000	0.00000000000000	0.00000000000000	0.00000000000000	0.00000000000000	0.00000000000000	0.00000000000000	28.25072900000000	0.00000000000000	0.00000000000000	0.00000000000000	0.00000000000000	
19.54158600000000	48.54612200000000	786.90370499999995	59.94167300000000	0.34855700000000	0.00000000000000	0.12609100000000	0.00000000000000	0.00000000000000	0.00000000000000	0.00000000000000	0.00000000000000	0.00000000000000	0.00000000000000	28.38862400000000	0.00000000000000	0.00000000000000	0.00000000000000	0.00000000000000	
19.54325300000000	47.93375800000000	786.73169700000005	60.08415100000000	0.34769500000000	0.00000000000000	0.12614700000000	0.00000000000000	0.00000000000000	0.00000000000000	0.00000000000000	0.00000000000000	0.00000000000000	0.00000000000000	28.52018000000000	0.00000000000000	0.00000000000000	0.00000000000000	0.00000000000000	
19.54492200000000	47.32818700000000	786.45222100000001	60.21686000000000	0.34683300000000	0.00000000000000	0.12620300000000	0.00000000000000	0.00000000000000	0.00000000000000	0.00000000000000	0.00000000000000	0.00000000000000	0.00000000000000	28.64492600000000	0.00000000000000	0.00000000000000	0.00000000000000	0.00000000000000	
